<?xml version="1.0" standalone="no"?>
<!DOCTYPE svg PUBLIC "-//W3C//DTD SVG 20010904//EN"
 "http://www.w3.org/TR/2001/REC-SVG-20010904/DTD/svg10.dtd">
<svg version="1.0" xmlns="http://www.w3.org/2000/svg"
 width="700.000000pt" height="700.000000pt" viewBox="0 0 700.000000 700.000000"
 preserveAspectRatio="xMidYMid meet">
<metadata>
Created by potrace 1.14, written by Peter Selinger 2001-2017
</metadata>
<g transform="translate(0.000000,700.000000) scale(0.100000,-0.100000)"
fill="#000000" stroke="none">
<path d="M4258 5685 c-2 -2 -28 -6 -58 -10 -184 -21 -418 -112 -582 -227 -94
-66 -266 -242 -331 -339 -114 -172 -184 -356 -215 -569 -3 -25 -6 -108 -5
-185 1 -215 45 -390 145 -583 68 -133 128 -213 243 -327 174 -173 366 -283
600 -341 356 -88 730 -27 1033 169 317 205 541 559 588 932 10 76 10 262 0
340 -52 417 -322 802 -696 993 -122 63 -264 112 -365 127 -22 4 -51 9 -65 11
-29 6 -287 13 -292 9z"/>
<path d="M2587 4041 c-14 -5 -900 -883 -1317 -1305 -61 -62 -64 -68 -64 -111
2 -93 98 -141 173 -85 14 10 324 318 687 682 709 711 688 686 658 757 -21 50
-87 80 -137 62z"/>
<path d="M2122 2278 c-491 -491 -899 -904 -906 -918 -20 -39 -11 -89 21 -121
34 -34 75 -43 117 -25 17 8 424 408 919 903 792 793 888 893 894 926 11 73
-37 127 -113 127 -38 0 -59 -20 -932 -892z"/>
<path d="M3915 2732 c-24 -3 -158 -131 -711 -685 -729 -729 -708 -705 -679
-774 7 -15 21 -35 31 -45 26 -23 84 -30 113 -14 22 12 1163 1146 1315 1306 71
75 79 107 44 160 -26 38 -69 58 -113 52z"/>
</g>
</svg>
